<svg width="1200" height="1200" viewBox="0 0 1200 1200" fill="none" xmlns="http://www.w3.org/2000/svg">
<rect width="1200" height="1200" fill="#EBEAEF"/>
<path d="M475.837 530C499.371 530 511.138 530 520.127 534.578C528.034 538.604 534.462 545.03 538.491 552.932C543.071 561.917 543.071 573.678 543.071 597.2V602.8C543.071 626.322 543.071 638.083 538.491 647.068C534.462 654.97 528.034 661.396 520.127 665.422C511.138 670 499.371 670 475.837 670H470.234C446.7 670 434.933 670 425.944 665.422C418.037 661.396 411.609 654.97 407.58 647.068C403 638.083 403 626.322 403 602.8V597.2C403 573.678 403 561.917 407.58 552.932C411.609 545.03 418.037 538.604 425.944 534.578C434.933 530 446.7 530 470.234 530H475.837ZM470.43 575.252C461.55 574.383 451.983 576.521 443.428 581.959C424.555 593.954 417.753 617.455 428.233 634.451C435.248 645.827 448.23 651.404 461.707 650.251C451.474 643.826 444.811 631.423 445.068 616.599C445.383 598.461 455.965 582.141 470.43 575.252ZM517.144 589.548C516.781 601.758 509.533 613.818 496.759 621.002C481.13 629.792 461.917 628.646 448.807 619.372C452.506 627.614 459.115 634.956 468.031 639.76C487.701 650.357 511.15 644.59 520.406 626.879C526.602 615.023 524.867 600.821 517.144 589.548ZM475.713 587.389C467.285 585.421 458.871 590.81 456.92 599.427C454.968 608.043 460.219 616.624 468.647 618.593C477.074 620.56 485.488 615.171 487.439 606.555C489.391 597.938 484.141 589.357 475.713 587.389ZM467.852 549.621C454.641 550.1 443.394 558.726 437.64 571.152C448.237 565.368 462.148 565.712 474.664 573.351C489.978 582.699 498.61 600.164 497.255 616.328C502.435 608.955 505.393 599.474 505.031 589.232C504.234 566.64 487.589 548.906 467.852 549.621Z" fill="#CBCDD3"/>
<path d="M580.89 633.797V565H593.368L622.851 605.616C623.186 606.017 623.589 606.585 624.058 607.321C624.528 607.989 624.964 608.658 625.366 609.327C625.769 609.995 626.037 610.53 626.171 610.931H626.674C626.674 609.995 626.674 609.093 626.674 608.223C626.674 607.354 626.674 606.485 626.674 605.616V565H639.252V633.797H626.876L597.292 592.88C596.755 592.077 596.118 591.108 595.38 589.971C594.709 588.768 594.24 587.932 593.971 587.464H593.468C593.468 588.333 593.468 589.236 593.468 590.172C593.468 591.041 593.468 591.944 593.468 592.88V633.797H580.89Z" fill="#CBCDD3"/>
<path d="M677.029 635C671.26 635 666.43 634.031 662.539 632.092C658.648 630.086 655.73 627.044 653.785 622.966C651.839 618.887 650.867 613.706 650.867 607.421C650.867 601.07 651.839 595.888 653.785 591.877C655.73 587.798 658.648 584.79 662.539 582.851C666.43 580.845 671.26 579.842 677.029 579.842C682.865 579.842 687.695 580.845 691.519 582.851C695.41 584.79 698.328 587.798 700.274 591.877C702.219 595.888 703.192 601.07 703.192 607.421C703.192 613.706 702.219 618.887 700.274 622.966C698.328 627.044 695.41 630.086 691.519 632.092C687.695 634.031 682.865 635 677.029 635ZM677.029 624.971C680.249 624.971 682.832 624.37 684.777 623.166C686.79 621.896 688.232 620.024 689.104 617.55C690.043 615.01 690.513 611.867 690.513 608.123V606.719C690.513 602.975 690.043 599.866 689.104 597.393C688.232 594.852 686.79 592.98 684.777 591.777C682.832 590.506 680.249 589.871 677.029 589.871C673.809 589.871 671.193 590.506 669.181 591.777C667.235 592.98 665.793 594.852 664.854 597.393C663.982 599.866 663.546 602.975 663.546 606.719V608.123C663.546 611.867 663.982 615.01 664.854 617.55C665.793 620.024 667.235 621.896 669.181 623.166C671.193 624.37 673.809 624.971 677.029 624.971Z" fill="#CBCDD3"/>
<path d="M713.622 633.797V581.046H723.886L724.892 589.37H725.596C726.267 587.698 727.072 586.16 728.011 584.756C729.018 583.286 730.292 582.116 731.835 581.246C733.378 580.31 735.256 579.842 737.47 579.842C738.544 579.842 739.516 579.943 740.388 580.143C741.328 580.344 742.032 580.544 742.501 580.745V592.278H738.778C736.699 592.278 734.854 592.579 733.244 593.181C731.634 593.715 730.259 594.585 729.118 595.788C728.045 596.991 727.24 598.496 726.703 600.301C726.167 602.106 725.898 604.212 725.898 606.619V633.797H713.622Z" fill="#CBCDD3"/>
<path d="M762.681 635C761.205 635 759.494 634.799 757.549 634.398C755.67 634.064 753.826 633.395 752.014 632.393C750.27 631.39 748.828 629.919 747.688 627.98C746.547 625.974 745.977 623.367 745.977 620.158C745.977 616.547 746.782 613.572 748.392 611.232C750.002 608.825 752.249 606.953 755.134 605.616C758.085 604.212 761.574 603.243 765.599 602.708C769.691 602.106 774.152 601.805 778.982 601.805V597.493C778.982 595.955 778.747 594.585 778.278 593.381C777.808 592.178 776.936 591.242 775.661 590.573C774.454 589.838 772.609 589.47 770.127 589.47C767.645 589.47 765.699 589.771 764.291 590.372C762.882 590.974 761.909 591.71 761.373 592.579C760.836 593.448 760.568 594.351 760.568 595.287V596.691H748.694C748.627 596.356 748.593 596.022 748.593 595.688C748.593 595.353 748.593 594.952 748.593 594.484C748.593 591.476 749.499 588.868 751.31 586.662C753.121 584.456 755.637 582.784 758.857 581.648C762.077 580.444 765.8 579.842 770.026 579.842C774.856 579.842 778.814 580.511 781.9 581.848C785.053 583.185 787.401 585.091 788.944 587.564C790.487 590.038 791.258 593.047 791.258 596.59V621.461C791.258 622.732 791.627 623.634 792.365 624.169C793.103 624.704 793.908 624.971 794.78 624.971H798V633.395C797.329 633.663 796.356 633.964 795.082 634.298C793.807 634.699 792.231 634.9 790.353 634.9C788.608 634.9 787.032 634.599 785.623 633.997C784.281 633.462 783.141 632.66 782.202 631.59C781.263 630.521 780.592 629.25 780.189 627.779H779.586C778.445 629.183 777.07 630.454 775.46 631.59C773.917 632.66 772.072 633.496 769.926 634.097C767.846 634.699 765.431 635 762.681 635ZM766.404 624.971C768.416 624.971 770.194 624.67 771.737 624.069C773.347 623.467 774.655 622.631 775.661 621.562C776.735 620.492 777.54 619.188 778.076 617.65C778.68 616.113 778.982 614.441 778.982 612.636V610.229C775.292 610.229 771.871 610.463 768.718 610.931C765.632 611.399 763.15 612.268 761.272 613.539C759.461 614.809 758.555 616.614 758.555 618.954C758.555 620.158 758.823 621.227 759.36 622.163C759.964 623.032 760.836 623.734 761.976 624.269C763.184 624.737 764.66 624.971 766.404 624.971Z" fill="#CBCDD3"/>
</svg>
